<?xml version="1.0" encoding="UTF-8"?> <svg xmlns="http://www.w3.org/2000/svg" width="131" height="36" viewBox="0 0 131 36" fill="none"> <g clip-path="url(#clip0_7724_1757)"> <path d="M40.3984 22.052H42.2202V18.4443H45.8639V22.052H47.6857V13.1909H45.8639V16.672H42.2202V13.1909H40.3984V22.052Z" fill="#1F2937"></path> <path d="M49.8752 22.052H56.3122V20.2798H51.697V18.381H55.2192V16.672H51.697V14.9631H56.1908V13.1909H49.8752V22.052Z" fill="#1F2937"></path> <path d="M57.9523 22.052H63.7214V20.2798H59.7742V13.1909H57.9523V22.052Z" fill="#1F2937"></path> <path d="M65.0569 22.052H70.826V20.2798H66.8787V13.1909H65.0569V22.052Z" fill="#1F2937"></path> <path d="M75.7439 22.2419C78.3552 22.2419 80.3592 20.1532 80.3592 17.6214C80.3592 15.0897 78.3552 13.001 75.7439 13.001C73.1327 13.001 71.1287 15.0897 71.1287 17.6214C71.1287 20.1532 73.1327 22.2419 75.7439 22.2419ZM75.7439 20.4697C74.2258 20.4697 73.0112 19.2038 73.0112 17.6214C73.0112 16.0391 74.2258 14.7732 75.7439 14.7732C77.2621 14.7732 78.4767 16.0391 78.4767 17.6214C78.4767 19.2038 77.2621 20.4697 75.7439 20.4697Z" fill="#1F2937"></path> <path d="M86.059 22.052H87.8201L89.5447 16.2923H89.6176L91.3422 22.052H93.1033L95.8968 13.1909H94.0142L92.2532 19.1405H92.1924L90.4313 13.1909H88.731L86.9699 19.1405H86.9092L85.1481 13.1909H83.2656L86.059 22.052Z" fill="#1F2937"></path> <path d="M101.007 22.2419C103.619 22.2419 105.623 20.1532 105.623 17.6214C105.623 15.0897 103.619 13.001 101.007 13.001C98.3961 13.001 96.3921 15.0897 96.3921 17.6214C96.3921 20.1532 98.3961 22.2419 101.007 22.2419ZM101.007 20.4697C99.4892 20.4697 98.2746 19.2038 98.2746 17.6214C98.2746 16.0391 99.4892 14.7732 101.007 14.7732C102.526 14.7732 103.74 16.0391 103.74 17.6214C103.74 19.2038 102.526 20.4697 101.007 20.4697Z" fill="#1F2937"></path> <path d="M107.257 22.052H109.079V19.1405H110.78L112.298 22.052H114.302L112.541 18.7607C112.541 18.7607 113.998 18.1911 113.998 16.1657C113.998 14.3934 112.844 13.1909 111.023 13.1909H107.257V22.052ZM109.079 17.3683V14.9631H110.962C111.63 14.9631 112.116 15.4694 112.116 16.1657C112.116 16.8619 111.63 17.3683 110.962 17.3683H109.079Z" fill="#1F2937"></path> <path d="M115.821 22.052H121.59V20.2798H117.643V13.1909H115.821V22.052Z" fill="#1F2937"></path> <path d="M122.926 22.052H126.023C128.634 22.052 130.516 20.0899 130.516 17.6214C130.516 15.153 128.634 13.1909 126.023 13.1909H122.926V22.052ZM124.747 20.2798V14.9631H126.023C127.541 14.9631 128.634 16.1024 128.634 17.6214C128.634 19.1405 127.541 20.2798 126.023 20.2798H124.747Z" fill="#1F2937"></path> <path fill-rule="evenodd" clip-rule="evenodd" d="M0.574626 28.1752L13.4846 35.8398C14.1974 36.2607 15.0919 35.7346 15.0892 34.8928L15.0458 19.6383C15.0458 19.2535 14.8425 18.8935 14.5146 18.6997L1.6046 11.035C0.891751 10.6114 -0.00270432 11.1403 6.14527e-06 11.982L0.0433736 27.2365C0.0433736 27.6214 0.24666 27.9814 0.574626 28.1752ZM10.2931 30.2827L10.3202 20.5801L8.45545 19.4808L8.44461 23.2107L5.36551 21.3942L5.37635 17.6671L3.51155 16.5678L3.48445 26.2676L5.34925 27.3669L5.36009 23.3076L8.43919 25.124L8.42834 29.1834L10.2931 30.2827Z" fill="#1F2937"></path> <path fill-rule="evenodd" clip-rule="evenodd" d="M2.46094 9.71303L15.3817 17.3832C15.7124 17.5798 16.1217 17.5826 16.4524 17.386L29.4681 9.70749C30.1782 9.2866 30.1809 8.23991 29.4708 7.81902L16.55 0.148842C16.2193 -0.0477585 15.81 -0.050527 15.4793 0.146073L2.46365 7.82456C1.75351 8.24545 1.7508 9.29214 2.46094 9.71303ZM22.8763 9.23867L17.206 3.5788L15.4659 4.61995L17.9595 6.82409C18.2392 7.05776 18.5145 7.29031 18.7863 7.51993C19.252 7.9134 19.7076 8.29828 20.1577 8.66548C19.1982 8.23075 18.2604 7.8237 17.1979 7.39727L13.3761 5.86047L11.5547 6.94039L14.0266 9.1556C14.7856 9.82847 15.5228 10.4764 16.2004 11.0496C15.306 10.6675 14.1649 10.1801 13.0807 9.73986L9.37277 8.23075L7.53778 9.31897L16.9675 12.747L18.8431 11.6339L16.2818 9.2719C15.7815 8.79834 15.2754 8.36646 14.7059 7.88048C14.6027 7.79245 14.4975 7.70264 14.3898 7.61049C15.3493 8.07014 16.1869 8.41627 17.1003 8.78455L21.0224 10.3407L22.8763 9.23867Z" fill="#1F2937"></path> <path fill-rule="evenodd" clip-rule="evenodd" d="M31.9527 27.2273L31.9093 11.959C31.9066 11.12 31.0176 10.5994 30.3074 11.0175L17.2918 18.696C16.9611 18.8898 16.7578 19.2526 16.7578 19.643L16.8012 34.9113C16.8039 35.7503 17.6929 36.2709 18.4031 35.8528L31.4187 28.1743C31.7494 27.9805 31.9527 27.6178 31.9527 27.2273ZM27.7922 17.2221C27.2582 17.2387 26.5264 17.4353 25.5018 18.0389C23.4012 19.2767 22.1137 21.3977 22.1164 23.1865C22.1219 24.7178 23.1085 25.1027 24.5992 24.8507C25.678 24.6541 26.1063 24.7759 26.109 25.4322C26.1117 26.1189 25.6211 26.8638 24.6887 27.412C23.824 27.9215 22.9702 28.096 22.439 28.0821L22.0324 30.278C22.5393 30.3084 23.5503 30.0398 24.5748 29.4362C27.0387 27.9852 28.1771 25.8116 28.1717 24.0477C28.1689 22.5663 27.4317 22.0318 25.8488 22.2755C24.6751 22.4527 24.1845 22.4472 24.1818 21.7743C24.1818 21.2427 24.6047 20.5089 25.4829 19.9911C26.3448 19.4816 26.998 19.393 27.345 19.393L27.7922 17.2221Z" fill="#1F2937"></path> </g> <defs> <clipPath id="clip0_7724_1757"> <rect width="130.519" height="36" fill="white"></rect> </clipPath> </defs> </svg> 